<svg width="128" height="128" viewBox="0 0 128 128" xmlns="http://www.w3.org/2000/svg" fill="none">
  <path
    d="M64 12L109 38V90L64 116L19 90V38L64 12ZM64 24L29 44V84L64 104L99 84V44L64 24Z"
    fill="currentColor"
  />
  <ellipse cx="64" cy="48" rx="22" ry="8" stroke="currentColor" stroke-width="6"/>
  <path d="M42 48V68C42 72.418 51.85 76 64 76C76.15 76 86 72.418 86 68V48" stroke="currentColor" stroke-width="6"/>
  <path d="M42 58C42 62.418 51.85 66 64 66C76.15 66 86 62.418 86 58" stroke="currentColor" stroke-width="6"/>
  <path d="M92 30L98 24L106 32" stroke="currentColor" stroke-width="6" stroke-linecap="round" stroke-linejoin="round"/>
</svg>
